<?xml version="1.0" encoding="UTF-8" standalone="no"?>
<!-- Created with Inkscape (http://www.inkscape.org/) -->

<svg
   xmlns:dc="http://purl.org/dc/elements/1.1/"
   xmlns:cc="http://creativecommons.org/ns#"
   xmlns:rdf="http://www.w3.org/1999/02/22-rdf-syntax-ns#"
   xmlns:svg="http://www.w3.org/2000/svg"
   xmlns="http://www.w3.org/2000/svg"
   xmlns:sodipodi="http://sodipodi.sourceforge.net/DTD/sodipodi-0.dtd"
   xmlns:inkscape="http://www.inkscape.org/namespaces/inkscape"
   width="120mm"
   height="29mm"
   viewBox="0 0 425.1966 102.75585"
   id="svg2"
   version="1.1"
   inkscape:version="0.91 r13725"
   sodipodi:docname="tmva-logo.svg">
  <defs
     id="defs4">
    <clipPath
       id="clipPath3352"
       clipPathUnits="userSpaceOnUse">
      <path
         inkscape:connector-curvature="0"
         id="path3354"
         d="M 0,0 359,0 359,127 0,127 0,0 Z" />
    </clipPath>
  </defs>
  <sodipodi:namedview
     id="base"
     pagecolor="#ffffff"
     bordercolor="#666666"
     borderopacity="1.0"
     inkscape:pageopacity="0.0"
     inkscape:pageshadow="2"
     inkscape:zoom="1.979899"
     inkscape:cx="162.80278"
     inkscape:cy="112.48799"
     inkscape:document-units="px"
     inkscape:current-layer="layer1"
     showgrid="false"
     inkscape:window-width="1536"
     inkscape:window-height="801"
     inkscape:window-x="-8"
     inkscape:window-y="-8"
     inkscape:window-maximized="1" />
  <metadata
     id="metadata7">
    <rdf:RDF>
      <cc:Work
         rdf:about="">
        <dc:format>image/svg+xml</dc:format>
        <dc:type
           rdf:resource="http://purl.org/dc/dcmitype/StillImage" />
        <dc:title></dc:title>
      </cc:Work>
    </rdf:RDF>
  </metadata>
  <g
     inkscape:label="Layer 1"
     inkscape:groupmode="layer"
     id="layer1"
     transform="translate(0,-949.60696)">
    <g
       transform="matrix(1.25,0,0,-1.25,-0.19080614,1092.6038)"
       inkscape:label="tmva-logo"
       id="g3344">
      <g
         id="g3346" />
      <g
         id="g3348">
        <g
           clip-path="url(#clipPath3352)"
           id="g3350">
          <path
             inkscape:connector-curvature="0"
             id="path3356"
             style="fill:#ffffff;fill-opacity:0;fill-rule:nonzero;stroke:none"
             d="M 0,127 359,127 359,0 0,0 0,127 Z" />
          <path
             inkscape:connector-curvature="0"
             id="path3358"
             style="fill:#ffffff;fill-opacity:1;fill-rule:nonzero;stroke:none"
             d="m 0.5,111.5 341,0 0,-80.00001 -341,0 0,80.00001 z" />
          <g
             transform="matrix(7.874016e-5,0,0,-7.874016e-5,0.5,111.5)"
             id="g3360">
            <path
               inkscape:connector-curvature="0"
               id="path3362"
               style="fill:none;stroke:#ffffff;stroke-width:12700;stroke-linecap:butt;stroke-linejoin:miter;stroke-miterlimit:8;stroke-dasharray:none;stroke-opacity:1"
               d="m 0,0 4330700,0 0,1016000 L 0,1016000 0,0 Z" />
          </g>
          <path
             inkscape:connector-curvature="0"
             id="path3364"
             style="fill:#ffa521;fill-opacity:1;fill-rule:nonzero;stroke:none"
             d="M 0,61 341,61 341,32 0,32 0,61 Z" />
          <g
             transform="matrix(7.874016e-5,0,0,-7.874016e-5,72,89)"
             id="g3366">
            <path
               inkscape:connector-curvature="0"
               id="path3368"
               style="fill:none;stroke:#ffa521;stroke-width:25400;stroke-linecap:butt;stroke-linejoin:round;stroke-miterlimit:10;stroke-dasharray:none;stroke-opacity:1"
               d="M 0,0 431800,469900" />
          </g>
          <g
             transform="matrix(-7.874016e-5,0,0,-7.874016e-5,72,90)"
             id="g3370">
            <path
               inkscape:connector-curvature="0"
               id="path3372"
               style="fill:none;stroke:#ffa521;stroke-width:25400;stroke-linecap:butt;stroke-linejoin:round;stroke-miterlimit:10;stroke-dasharray:none;stroke-opacity:1"
               d="M 0,0 457200,482600" />
          </g>
          <g
             transform="matrix(7.874016e-5,0,0,-7.874016e-5,29,53)"
             id="g3374">
            <path
               inkscape:connector-curvature="0"
               id="path3376"
               style="fill:none;stroke:#ffa521;stroke-width:25400;stroke-linecap:butt;stroke-linejoin:round;stroke-miterlimit:10;stroke-dasharray:none;stroke-opacity:1"
               d="M 0,0 1016000,1.01738" />
          </g>
          <path
             inkscape:connector-curvature="0"
             id="path3378"
             style="fill:#ffffff;fill-opacity:1;fill-rule:nonzero;stroke:none"
             d="m 17.5,51.5 c 0,11.0457 8.95431,20 20,20 11.0457,0 20,-8.9543 20,-20 0,-11.0457 -8.9543,-20 -20,-20 -11.04569,0 -20,8.9543 -20,20 z" />
          <g
             transform="matrix(7.874016e-5,0,0,-7.874016e-5,17.5,71.5)"
             id="g3380">
            <path
               inkscape:connector-curvature="0"
               id="path3382"
               style="fill:none;stroke:#ffa521;stroke-width:12700;stroke-linecap:butt;stroke-linejoin:round;stroke-miterlimit:10;stroke-dasharray:none;stroke-opacity:1"
               d="M 0,254000 C 0,113719.7 113719.7,0 254000,0 394280.3,0 508000.1,113719.7 508000.1,254000 508000.1,394280.3 394280.3,508000.1 254000,508000.1 113719.7,508000.1 0,394280.3 0,254000 Z" />
          </g>
          <path
             inkscape:connector-curvature="0"
             id="path3384"
             style="fill:#ffffff;fill-opacity:1;fill-rule:nonzero;stroke:none"
             d="m 85.5,51.5 c 0,11.0457 8.95431,20 20,20 11.0457,0 20,-8.9543 20,-20 0,-11.0457 -8.9543,-20 -20,-20 -11.04569,0 -20,8.9543 -20,20 z" />
          <g
             transform="matrix(7.874016e-5,0,0,-7.874016e-5,85.5,71.5)"
             id="g3386">
            <path
               inkscape:connector-curvature="0"
               id="path3388"
               style="fill:none;stroke:#ffa521;stroke-width:12700;stroke-linecap:butt;stroke-linejoin:round;stroke-miterlimit:10;stroke-dasharray:none;stroke-opacity:1"
               d="M 0,254000 C 0,113719.7 113719.7,0 254000,0 394280.4,0 508000,113719.7 508000,254000 508000,394280.3 394280.4,508000.1 254000,508000.1 113719.7,508000.1 0,394280.3 0,254000 Z" />
          </g>
          <path
             inkscape:connector-curvature="0"
             id="path3390"
             style="fill:#ffa521;fill-opacity:1;fill-rule:nonzero;stroke:none"
             d="m 51.5,91.5 c 0,11.0457 8.9543,20 20,20 11.0457,0 20,-8.9543 20,-20 0,-11.0457 -8.9543,-20 -20,-20 -11.0457,0 -20,8.9543 -20,20 z" />
          <g
             transform="matrix(7.874016e-5,0,0,-7.874016e-5,51.5,111.5)"
             id="g3392">
            <path
               inkscape:connector-curvature="0"
               id="path3394"
               style="fill:none;stroke:#ffa521;stroke-width:12700;stroke-linecap:butt;stroke-linejoin:round;stroke-miterlimit:10;stroke-dasharray:none;stroke-opacity:1"
               d="M 0,254000 C 0,113719.7 113719.7,0 254000,0 394280.4,0 508000,113719.7 508000,254000 508000,394280.4 394280.4,508000 254000,508000 113719.7,508000 0,394280.4 0,254000 Z" />
          </g>
          <g
             transform="translate(131.1275,49.18744)"
             id="g3396">
            <text
               id="text3398"
               style="font-style:italic;font-variant:normal;font-weight:bold;font-size:60px;font-family:Verdana;-inkscape-font-specification:Verdana-BoldItalic;writing-mode:lr-tb;fill:#ff0000;fill-opacity:1;fill-rule:nonzero;stroke:none"
               transform="scale(1,-1)">
              <tspan
                 id="tspan3400"
                 y="0"
                 x="0">T</tspan>
            </text>
          </g>
          <g
             transform="translate(172.1275,49.18744)"
             id="g3402">
            <text
               id="text3404"
               style="font-variant:normal;font-weight:bold;font-size:60px;font-family:Verdana;-inkscape-font-specification:Verdana-Bold;writing-mode:lr-tb;fill:#0070c0;fill-opacity:1;fill-rule:nonzero;stroke:none"
               transform="scale(1,-1)">
              <tspan
                 id="tspan3406"
                 sodipodi:role="line"
                 y="0"
                 x="0 57 103.02">MVA</tspan>
            </text>
          </g>
        </g>
      </g>
    </g>
  </g>
</svg>
